<?xml version="1.0" encoding="utf-8"?>
<!-- Generator: Adobe Illustrator 16.0.0, SVG Export Plug-In . SVG Version: 6.00 Build 0)  -->
<!DOCTYPE svg PUBLIC "-//W3C//DTD SVG 1.1//EN" "http://www.w3.org/Graphics/SVG/1.1/DTD/svg11.dtd">
<svg version="1.1" id="Layer_1" xmlns="http://www.w3.org/2000/svg" xmlns:xlink="http://www.w3.org/1999/xlink" x="0px" y="0px"
	 width="380.822px" height="56.164px" viewBox="0 0 380.822 56.164" enable-background="new 0 0 380.822 56.164"
	 xml:space="preserve">
<path fill="#CD0000" d="M2.952,1.431H43.2v20.88H32.4V12.303h-3.888v42.048H17.64V12.303h-3.816v10.008H2.952V1.431z"/>
<path fill="#CD0000" d="M49.967,1.431h31.608v52.92H49.967V1.431z M70.775,43.479V12.303H60.768v31.176H70.775z"/>
<path fill="#CD0000" d="M120.887,54.351h-10.872V39.807l-9.936-9.864v24.408H89.207V1.431h10.872v24.408l9.936-9.864V1.431h10.872
	v18.864l-8.352,8.208l8.352,8.136V54.351z"/>
<path fill="#CD0000" d="M160.126,1.431v52.92h-10.8V43.047h-10.008v11.304h-10.8V23.175l11.088-10.872h-11.088V1.431H160.126z
	 M149.327,32.175V17.631l-10.008,9.864v4.68H149.327z"/>
<path fill="#CD0000" d="M209.375,1.431h10.8v52.92h-10.8V16.263l-10.008,9.864v28.224h-10.8v-36.72l-10.008,9.864v26.856h-10.8
	V23.175l11.088-10.872h-11.088V1.431h31.608v9.792L209.375,1.431z"/>
<path fill="#CD0000" d="M259.414,1.431v52.92h-10.8V43.047h-10.008v11.304h-10.8V23.175l11.088-10.872h-11.088V1.431H259.414z
	 M248.614,32.175V17.631l-10.008,9.864v4.68H248.614z"/>
<path fill="#CD0000" d="M298.727,54.351h-10.872V39.807l-9.936-9.864v24.408h-10.872V1.431h10.872v24.408l9.936-9.864V1.431h10.872
	v18.864l-8.353,8.208l8.353,8.136V54.351z"/>
<path fill="#CD0000" d="M310.005,36.495h10.872v6.984h7.487V1.431h10.872v52.92h-29.231V36.495z"/>
<path fill="#CD0000" d="M346.868,1.431h31.607v16.272h-10.8v-5.4h-10.008v3.456l20.808,20.808v17.784h-31.607V38.079h10.8v5.4
	h10.008v-2.808l-20.808-20.664V1.431z"/>
<polygon fill="#FFCD00" points="313.025,7.06 316.5,14.1 324.271,15.229 318.648,20.709 319.976,28.448 313.025,24.794 
	306.076,28.448 307.403,20.709 301.781,15.229 309.552,14.1 "/>
</svg>
